<!DOCTYPE svg PUBLIC "-//W3C//DTD SVG 1.1//EN" "http://www.w3.org/Graphics/SVG/1.1/DTD/svg11.dtd">
<!-- Uploaded to: SVG Repo, www.svgrepo.com, Transformed by: SVG Repo Mixer Tools -->
<svg fill="#ffffff" width="800px" height="800px" viewBox="0 0 256 256" id="Flat" xmlns="http://www.w3.org/2000/svg">
<g id="SVGRepo_bgCarrier" stroke-width="0"/>
<g id="SVGRepo_tracerCarrier" stroke-linecap="round" stroke-linejoin="round"/>
<g id="SVGRepo_iconCarrier"> <path d="M208,36H48A28.03146,28.03146,0,0,0,20,64V176a28.03146,28.03146,0,0,0,28,28H208a28.03146,28.03146,0,0,0,28-28V64A28.03146,28.03146,0,0,0,208,36Zm4,140a4.004,4.004,0,0,1-4,4H48a4.004,4.004,0,0,1-4-4V64a4.004,4.004,0,0,1,4-4H208a4.004,4.004,0,0,1,4,4Zm-40,52a12.0006,12.0006,0,0,1-12,12H96a12,12,0,0,1,0-24h64A12.0006,12.0006,0,0,1,172,228Z"/> </g>
</svg>