<svg xmlns="http://www.w3.org/2000/svg" width="116" height="24" viewBox="0 0 116 24"><path fill-rule="evenodd" clip-rule="evenodd" d="M5.34476 3.06964C6.03918 2.8034 6.67178 2.39308 7.20249 1.86468C7.73321 1.33628 8.15047 0.701315 8.42786 0C6.91369 0.0390682 5.3475 1.61854 5.34476 3.06964ZM1.78524 19.8132C2.83941 19.3164 4.24953 20.1229 5.28452 21.4373C4.41655 22.2103 2.65595 21.574 1.78798 19.8132H1.78524ZM0.569524 16.604C1.69762 16.3249 2.91333 17.3881 3.64988 18.8364C2.64774 19.4281 1.06238 18.4793 0.572262 16.6096L0.569524 16.604ZM0 13.2553L0.00292873 13.2552C0.140893 15.1763 1.49003 16.3973 2.58476 16.0459C2.15251 14.4845 1.15989 13.21 0.00292873 13.2552L0.00273764 13.2525L0 13.2553ZM0.0794045 9.85635L0.0817673 9.85673C-0.143915 11.7695 0.945273 13.2273 2.08643 13.0962C1.96056 11.4927 1.22494 10.0425 0.0817673 9.85673L0.0821427 9.85356L0.0794045 9.85635ZM0.807738 6.5216C1.88381 6.93181 2.33833 8.51128 2.15762 10.1131C1.0131 10.0154 0.216309 8.37175 0.807738 6.5216ZM2.17679 3.36545L2.18084 3.368C1.22439 5.08343 1.69269 6.86779 2.79012 7.19134C3.27137 5.64747 3.16553 3.99228 2.18084 3.368L2.18226 3.36545H2.17679ZM4.20572 0.493934C5.04631 1.30878 4.79167 2.98593 4.00036 4.42308C2.97905 3.88449 2.88048 2.02038 4.20572 0.493934ZM7.93774 3.85101C7.04238 4.86678 5.71988 5.37467 4.69036 4.82492C5.49262 3.39335 7.1081 3.03895 7.93774 3.85101ZM6.50845 5.88255C5.85679 7.02948 4.66298 7.77736 3.54857 7.44528C4.04691 5.90488 5.53095 5.26025 6.50845 5.88255ZM5.53643 8.11502C5.13119 9.34846 4.10167 10.314 2.94619 10.2107C3.13786 8.61454 4.45762 7.70201 5.53643 8.11502ZM5.02167 10.4731C4.86012 11.7539 4.03322 12.9065 2.88048 13.0348C2.76548 11.4414 3.88536 10.2833 5.02167 10.4731ZM4.96691 12.8758C5.04905 14.165 4.45762 15.4654 3.35143 15.8226C2.9325 14.2627 3.81691 12.9176 4.96691 12.8758ZM5.36667 15.2505C5.69524 16.5035 5.36667 17.9156 4.36179 18.4876C3.63619 17.0226 4.24953 15.5212 5.36667 15.2505ZM6.22917 17.5221C6.81238 18.6969 6.78774 20.1676 5.90881 20.9294C4.87929 19.6206 5.16953 18.0104 6.22917 17.5221ZM8.30738 23.5888C8.43881 23.6921 8.49357 23.8455 8.42786 23.9376C8.36214 24.0297 8.19238 24.0186 8.05822 23.9125C5.08851 21.5812 3.11035 18.1769 2.53205 14.4023C1.95375 10.6276 2.81946 6.77075 4.95048 3.62776C0.807738 9.95681 1.99881 18.8058 8.30191 23.5832L8.30738 23.5888ZM33.3112 19.4C34.5539 20.024 36.0356 20.336 37.7563 20.336C39.2859 20.336 40.6879 20.088 41.9625 19.592C43.2531 19.096 44.3604 18.4 45.2845 17.504C46.2085 16.592 46.9255 15.528 47.4353 14.312C47.9452 13.08 48.2001 11.728 48.2001 10.256C48.2001 8.80001 47.8655 7.52001 47.1964 6.41601C46.5272 5.31201 45.5712 4.44801 44.3285 3.82401C43.0858 3.18401 41.604 2.86401 39.8833 2.86401C38.3538 2.86401 36.9438 3.11201 35.6533 3.60801C34.3786 4.10401 33.2793 4.80801 32.3552 5.72001C31.4311 6.61601 30.7142 7.68001 30.2043 8.91201C29.6945 10.128 29.4396 11.472 29.4396 12.944C29.4396 14.4 29.7741 15.68 30.4433 16.784C31.1125 17.888 32.0684 18.76 33.3112 19.4ZM40.3613 15.944C39.724 16.248 38.9911 16.4 38.1626 16.4C37.3182 16.4 36.6012 16.248 36.0117 15.944C35.4382 15.624 34.9921 15.184 34.6734 14.624C34.3707 14.048 34.2193 13.392 34.2193 12.656C34.2193 11.872 34.3388 11.128 34.5778 10.424C34.8168 9.72001 35.1593 9.09601 35.6055 8.55201C36.0675 7.99201 36.6251 7.56001 37.2784 7.25601C37.9316 6.95201 38.6645 6.80001 39.4771 6.80001C40.3215 6.80001 41.0305 6.96001 41.604 7.28001C42.1935 7.58401 42.6397 8.01601 42.9424 8.57602C43.261 9.13601 43.4204 9.79202 43.4204 10.544C43.4204 11.328 43.3009 12.072 43.0619 12.776C42.8229 13.48 42.4724 14.112 42.0103 14.672C41.5642 15.216 41.0145 15.64 40.3613 15.944ZM19.638 6.96801L17.0957 20H21.7559L24.2983 6.96801H29.4991L30.24 3.20001H15.3272L14.5863 6.96801H19.638ZM49.03 20L52.3759 3.20001H68.0535L64.7076 20H60.0474L62.5897 6.96801H56.2326L53.6903 20H49.03ZM69.3832 11.408L68.6901 14.912H75.6447L76.3377 11.408H69.3832ZM78.4942 20L81.1046 6.87201H77.9923L78.7332 3.20001H86.572L83.2262 20H78.4942ZM90.1395 19.568C91.0795 20.08 92.1868 20.336 93.4614 20.336C94.7679 20.336 95.9628 20.056 97.0462 19.496C98.1296 18.936 99.0617 18.16 99.8424 17.168C100.639 16.16 101.252 14.992 101.683 13.664C102.129 12.32 102.352 10.88 102.352 9.34401C102.352 7.96801 102.089 6.80001 101.563 5.84001C101.053 4.88001 100.328 4.14401 99.3883 3.63201C98.4642 3.12001 97.3649 2.86401 96.0903 2.86401C94.7838 2.86401 93.5889 3.14401 92.5054 3.70401C91.422 4.26401 90.482 5.04801 89.6854 6.05601C88.8888 7.04801 88.2754 8.21601 87.8452 9.56001C87.415 10.888 87.1999 12.32 87.1999 13.856C87.1999 15.232 87.4548 16.4 87.9647 17.36C88.4745 18.32 89.1994 19.056 90.1395 19.568ZM95.5406 15.752C95.0785 16.216 94.5368 16.448 93.9155 16.448C93.326 16.448 92.848 16.24 92.4815 15.824C92.131 15.408 91.9558 14.712 91.9558 13.736C91.9558 13.064 92.0275 12.328 92.1709 11.528C92.3302 10.728 92.5612 9.96801 92.8639 9.24801C93.1666 8.52801 93.549 7.93601 94.0111 7.47201C94.4731 6.99201 95.0148 6.75201 95.6362 6.75201C96.2257 6.75201 96.6957 6.96001 97.0462 7.37601C97.4127 7.79201 97.5959 8.48801 97.5959 9.46401C97.5959 10.136 97.5162 10.872 97.3569 11.672C97.2135 12.472 96.9904 13.232 96.6877 13.952C96.385 14.672 96.0026 15.272 95.5406 15.752ZM108.798 1.86468C109.328 2.39308 109.961 2.8034 110.655 3.06964C110.653 1.61854 109.086 0.0390682 107.572 0C107.85 0.701315 108.267 1.33628 108.798 1.86468ZM110.715 21.4373C111.75 20.1229 113.161 19.3164 114.215 19.8132H114.212C113.344 21.574 111.583 22.2103 110.715 21.4373ZM112.35 18.8364C113.087 17.3881 114.302 16.3249 115.43 16.604L115.428 16.6096C114.938 18.4793 113.352 19.4281 112.35 18.8364ZM115.997 13.2552L116 13.2553L115.997 13.2525L115.997 13.2552ZM115.997 13.2552C114.84 13.21 113.847 14.4845 113.415 16.0459C114.51 16.3973 115.859 15.1763 115.997 13.2552ZM115.918 9.85673L115.921 9.85635L115.918 9.85356L115.918 9.85673ZM115.918 9.85673C114.775 10.0425 114.039 11.4927 113.914 13.0962C115.055 13.2273 116.144 11.7695 115.918 9.85673ZM115.192 6.5216C114.116 6.93181 113.662 8.51128 113.842 10.1131C114.987 10.0154 115.784 8.37175 115.192 6.5216ZM113.819 3.36801L113.823 3.36545H113.818L113.819 3.36801ZM113.819 3.36801C112.834 3.99228 112.729 5.64747 113.21 7.19134C114.307 6.86779 114.776 5.08343 113.819 3.36801ZM111.794 0.493934C110.954 1.30878 111.208 2.98593 112 4.42308C113.021 3.88449 113.12 2.02038 111.794 0.493934ZM108.062 3.85101C108.958 4.86678 110.28 5.37467 111.31 4.82492C110.507 3.39335 108.892 3.03895 108.062 3.85101ZM109.492 5.88255C110.143 7.02948 111.337 7.77736 112.451 7.44528C111.953 5.90488 110.469 5.26025 109.492 5.88255ZM110.464 8.11502C110.869 9.34846 111.898 10.314 113.054 10.2107C112.862 8.61454 111.542 7.70201 110.464 8.11502ZM110.978 10.4731C111.14 11.7539 111.967 12.9065 113.12 13.0348C113.235 11.4414 112.115 10.2833 110.978 10.4731ZM111.033 12.8758C110.951 14.165 111.542 15.4654 112.649 15.8226C113.068 14.2627 112.183 12.9176 111.033 12.8758ZM110.633 15.2505C110.305 16.5035 110.633 17.9156 111.638 18.4876C112.364 17.0226 111.75 15.5212 110.633 15.2505ZM109.771 17.5221C109.188 18.6969 109.212 20.1676 110.091 20.9294C111.121 19.6206 110.83 18.0104 109.771 17.5221ZM107.572 23.9376C107.506 23.8455 107.561 23.6921 107.693 23.5888L107.698 23.5832C114.001 18.8058 115.192 9.95681 111.05 3.62776C113.181 6.77075 114.046 10.6276 113.468 14.4023C112.89 18.1769 110.911 21.5812 107.942 23.9125C107.808 24.0186 107.638 24.0297 107.572 23.9376Z" fill="url(#paint0_linear_5092_4444)"/><defs><linearGradient id="paint0_linear_5092_4444" x1="177.5" y1="-7" x2="179.245" y2="40.141" gradientUnits="userSpaceOnUse"><stop stop-color="#fff"/><stop offset="1" stop-color="#131119" stop-opacity="0"/></linearGradient></defs></svg>