<!DOCTYPE svg PUBLIC "-//W3C//DTD SVG 1.1//EN" "http://www.w3.org/Graphics/SVG/1.1/DTD/svg11.dtd">
<!-- Uploaded to: SVG Repo, www.svgrepo.com, Transformed by: SVG Repo Mixer Tools -->
<svg fill="#ffffff" height="800px" width="800px" version="1.1" id="Layer_1" xmlns="http://www.w3.org/2000/svg" xmlns:xlink="http://www.w3.org/1999/xlink" viewBox="0 0 512 512" xml:space="preserve">
<g id="SVGRepo_bgCarrier" stroke-width="0"/>
<g id="SVGRepo_tracerCarrier" stroke-linecap="round" stroke-linejoin="round"/>
<g id="SVGRepo_iconCarrier"> <g> <g> <path d="M491.52,373.76V199.68h-20.48V56.32H30.72v184.32H0v215.04h133.12v-61.44h20.48v15.36c0,25.409,20.67,46.08,46.08,46.08 h266.24c25.409,0,46.08-20.671,46.08-46.08v-35.84H491.52z M102.4,424.96H30.72v-153.6h71.68V424.96z M174.08,363.52h-40.96V332.8 h40.96V363.52z M174.08,302.08h-40.96v-61.44H61.44V87.04h378.88v112.64H174.08V302.08z M460.8,230.4v143.36h-256V230.4H460.8z M481.28,409.6c0,8.469-6.889,15.36-15.36,15.36H199.68c-8.469,0-15.36-6.891-15.36-15.36v-5.12h296.96V409.6z"/> </g> </g> </g>
</svg>