<svg xmlns="http://www.w3.org/2000/svg" xmlns:xlink="http://www.w3.org/1999/xlink" viewBox="0,0,256,256" width="16px" height="16px" fill-rule="nonzero"><g transform="translate(-32,-32) scale(1.25,1.25)"><g fill-opacity="0" fill="#ffffff" fill-rule="nonzero" stroke="none" stroke-width="1" stroke-linecap="butt" stroke-linejoin="miter" stroke-miterlimit="10" stroke-dasharray="" stroke-dashoffset="0" font-family="none" font-weight="none" font-size="none" text-anchor="none" style="mix-blend-mode: normal"><path d="M25.6,230.4v-204.8h204.8v204.8z" id="bgRectangle"></path></g><g fill="#ffffff" fill-rule="nonzero" stroke="none" stroke-width="1" stroke-linecap="butt" stroke-linejoin="miter" stroke-miterlimit="10" stroke-dasharray="" stroke-dashoffset="0" font-family="none" font-weight="none" font-size="none" text-anchor="none" style="mix-blend-mode: normal"><g transform="scale(5.33333,5.33333)"><path d="M16.5,5c-3.57194,0 -6.5,2.92806 -6.5,6.5v30c0.00017,0.56293 0.31547,1.07839 0.81656,1.33491c0.50109,0.25652 1.10362,0.21091 1.56039,-0.11811l11.62305,-8.36914l11.62305,8.36914c0.45677,0.32902 1.0593,0.37463 1.56039,0.11811c0.50109,-0.25652 0.8164,-0.77198 0.81656,-1.33491v-30c0,-3.57194 -2.92806,-6.5 -6.5,-6.5zM16.5,8h15c1.95006,0 3.5,1.54994 3.5,3.5v27.07227l-10.12305,-7.28906c-0.52374,-0.37736 -1.23016,-0.37736 -1.75391,0l-10.12305,7.28906v-27.07227c0,-1.95006 1.54994,-3.5 3.5,-3.5z"></path></g></g></g></svg>